<mxfile host="app.diagrams.net" agent="Mozilla/5.0 (Windows NT 10.0; Win64; x64) AppleWebKit/537.36 (KHTML, like Gecko) Chrome/134.0.0.0 Safari/537.36 OPR/119.0.0.0" version="27.1.6">
  <diagram name="Pagina-1" id="wJOhGbkmjoxHLYDANczE">
    <mxGraphModel dx="1394" dy="-408" grid="1" gridSize="10" guides="1" tooltips="1" connect="1" arrows="1" fold="1" page="1" pageScale="1" pageWidth="827" pageHeight="1169" math="0" shadow="0">
      <root>
        <mxCell id="0" />
        <mxCell id="1" parent="0" />
        <mxCell id="E-5v2TKGbrNrk4kBcRAY-1091" value="residenza" style="endArrow=open;endFill=0;html=1;edgeStyle=orthogonalEdgeStyle;align=left;verticalAlign=top;rounded=0;" edge="1" parent="1">
          <mxGeometry x="-0.2079" y="10" relative="1" as="geometry">
            <mxPoint x="460" y="1320" as="sourcePoint" />
            <mxPoint x="690" y="1320" as="targetPoint" />
            <Array as="points">
              <mxPoint x="569" y="1320" />
              <mxPoint x="569" y="1320" />
            </Array>
            <mxPoint as="offset" />
          </mxGeometry>
        </mxCell>
        <mxCell id="E-5v2TKGbrNrk4kBcRAY-1098" value="scrivi()" style="endArrow=block;endFill=1;html=1;edgeStyle=orthogonalEdgeStyle;align=left;verticalAlign=top;rounded=0;" edge="1" parent="1">
          <mxGeometry x="-0.1099" y="9" relative="1" as="geometry">
            <mxPoint x="986" y="1470" as="sourcePoint" />
            <mxPoint x="1180" y="1470" as="targetPoint" />
            <Array as="points">
              <mxPoint x="990" y="1470" />
            </Array>
            <mxPoint as="offset" />
          </mxGeometry>
        </mxCell>
        <mxCell id="E-5v2TKGbrNrk4kBcRAY-1108" value="&lt;span style=&quot;font-size: 16px; font-weight: 700;&quot;&gt;:UtenteReg&lt;/span&gt;" style="html=1;whiteSpace=wrap;fontColor=default;" vertex="1" parent="1">
          <mxGeometry x="390" y="1240" width="140" height="50" as="geometry" />
        </mxCell>
        <mxCell id="E-5v2TKGbrNrk4kBcRAY-1109" value="" style="endArrow=none;dashed=1;html=1;rounded=0;entryX=0.5;entryY=1;entryDx=0;entryDy=0;" edge="1" parent="1" target="E-5v2TKGbrNrk4kBcRAY-1108">
          <mxGeometry width="50" height="50" relative="1" as="geometry">
            <mxPoint x="460" y="1360" as="sourcePoint" />
            <mxPoint x="480" y="1330" as="targetPoint" />
          </mxGeometry>
        </mxCell>
        <mxCell id="E-5v2TKGbrNrk4kBcRAY-1117" value="&lt;span style=&quot;font-size: 16px; font-weight: 700;&quot;&gt;:ViewModRes&lt;/span&gt;" style="html=1;whiteSpace=wrap;fontColor=#000000;fillColor=#fa6800;strokeColor=#C73500;" vertex="1" parent="1">
          <mxGeometry x="620" y="1240" width="140" height="50" as="geometry" />
        </mxCell>
        <mxCell id="E-5v2TKGbrNrk4kBcRAY-1118" value="" style="endArrow=none;dashed=1;html=1;rounded=0;entryX=0.5;entryY=1;entryDx=0;entryDy=0;" edge="1" parent="1" target="E-5v2TKGbrNrk4kBcRAY-1117">
          <mxGeometry width="50" height="50" relative="1" as="geometry">
            <mxPoint x="690" y="1450" as="sourcePoint" />
            <mxPoint x="710" y="1330" as="targetPoint" />
          </mxGeometry>
        </mxCell>
        <mxCell id="E-5v2TKGbrNrk4kBcRAY-1119" value="&lt;span style=&quot;font-size: 16px; font-weight: 700;&quot;&gt;:AreaPersContr&lt;/span&gt;" style="html=1;whiteSpace=wrap;fontColor=#000000;fillColor=light-dark(#FA6800,#00CC00);strokeColor=light-dark(#C73500,#00CC00);" vertex="1" parent="1">
          <mxGeometry x="916" y="1240" width="140" height="50" as="geometry" />
        </mxCell>
        <mxCell id="E-5v2TKGbrNrk4kBcRAY-1120" value="" style="endArrow=none;dashed=1;html=1;rounded=0;entryX=0.5;entryY=1;entryDx=0;entryDy=0;" edge="1" parent="1" target="E-5v2TKGbrNrk4kBcRAY-1119">
          <mxGeometry width="50" height="50" relative="1" as="geometry">
            <mxPoint x="986" y="1570" as="sourcePoint" />
            <mxPoint x="1006" y="1380" as="targetPoint" />
          </mxGeometry>
        </mxCell>
        <mxCell id="E-5v2TKGbrNrk4kBcRAY-1121" value="&lt;span style=&quot;font-size: 16px; font-weight: 700;&quot;&gt;:Logger&lt;/span&gt;" style="html=1;whiteSpace=wrap;fontColor=default;fillColor=light-dark(#FFFFFF,#3399FF);" vertex="1" parent="1">
          <mxGeometry x="1110" y="1372" width="140" height="50" as="geometry" />
        </mxCell>
        <mxCell id="E-5v2TKGbrNrk4kBcRAY-1122" value="" style="endArrow=none;dashed=1;html=1;rounded=0;entryX=0.5;entryY=1;entryDx=0;entryDy=0;" edge="1" parent="1" target="E-5v2TKGbrNrk4kBcRAY-1121">
          <mxGeometry width="50" height="50" relative="1" as="geometry">
            <mxPoint x="1180" y="1560" as="sourcePoint" />
            <mxPoint x="1200" y="1462" as="targetPoint" />
          </mxGeometry>
        </mxCell>
        <mxCell id="E-5v2TKGbrNrk4kBcRAY-1123" value="" style="endArrow=open;dashed=1;endFill=0;endSize=12;html=1;rounded=0;" edge="1" parent="1">
          <mxGeometry width="160" relative="1" as="geometry">
            <mxPoint x="1180" y="1530" as="sourcePoint" />
            <mxPoint x="985" y="1530" as="targetPoint" />
          </mxGeometry>
        </mxCell>
        <mxCell id="E-5v2TKGbrNrk4kBcRAY-1124" value="modificaRes()" style="endArrow=open;endFill=0;html=1;edgeStyle=orthogonalEdgeStyle;align=left;verticalAlign=top;rounded=0;" edge="1" parent="1">
          <mxGeometry x="-0.2079" y="10" relative="1" as="geometry">
            <mxPoint x="690" y="1396.76" as="sourcePoint" />
            <mxPoint x="986" y="1397" as="targetPoint" />
            <Array as="points">
              <mxPoint x="799" y="1396.76" />
              <mxPoint x="799" y="1396.76" />
            </Array>
            <mxPoint as="offset" />
          </mxGeometry>
        </mxCell>
        <mxCell id="E-5v2TKGbrNrk4kBcRAY-1125" value="" style="endArrow=open;dashed=1;endFill=0;endSize=12;html=1;rounded=0;" edge="1" parent="1">
          <mxGeometry width="160" relative="1" as="geometry">
            <mxPoint x="985" y="1440" as="sourcePoint" />
            <mxPoint x="690" y="1440" as="targetPoint" />
          </mxGeometry>
        </mxCell>
        <mxCell id="E-5v2TKGbrNrk4kBcRAY-1126" value="Actor" style="shape=umlActor;verticalLabelPosition=bottom;verticalAlign=top;html=1;" vertex="1" parent="1">
          <mxGeometry x="445" y="1180" width="30" height="60" as="geometry" />
        </mxCell>
        <mxCell id="E-5v2TKGbrNrk4kBcRAY-1127" value="residenza" style="endArrow=open;endFill=0;html=1;edgeStyle=orthogonalEdgeStyle;align=left;verticalAlign=top;rounded=0;" edge="1" parent="1">
          <mxGeometry x="-0.2079" y="10" relative="1" as="geometry">
            <mxPoint x="460" y="1810" as="sourcePoint" />
            <mxPoint x="690" y="1810" as="targetPoint" />
            <Array as="points">
              <mxPoint x="569" y="1810" />
              <mxPoint x="569" y="1810" />
            </Array>
            <mxPoint as="offset" />
          </mxGeometry>
        </mxCell>
        <mxCell id="E-5v2TKGbrNrk4kBcRAY-1128" value="&lt;span style=&quot;font-size: 16px; font-weight: 700;&quot;&gt;Rilevazione&lt;/span&gt;" style="html=1;whiteSpace=wrap;fontColor=default;" vertex="1" parent="1">
          <mxGeometry x="390" y="1730" width="140" height="50" as="geometry" />
        </mxCell>
        <mxCell id="E-5v2TKGbrNrk4kBcRAY-1129" value="" style="endArrow=none;dashed=1;html=1;rounded=0;entryX=0.5;entryY=1;entryDx=0;entryDy=0;" edge="1" parent="1" target="E-5v2TKGbrNrk4kBcRAY-1128">
          <mxGeometry width="50" height="50" relative="1" as="geometry">
            <mxPoint x="460" y="1850" as="sourcePoint" />
            <mxPoint x="480" y="1820" as="targetPoint" />
          </mxGeometry>
        </mxCell>
        <mxCell id="E-5v2TKGbrNrk4kBcRAY-1130" value="&lt;span style=&quot;font-size: 16px; font-weight: 700;&quot;&gt;:Analisi&lt;/span&gt;" style="html=1;whiteSpace=wrap;fontColor=#000000;fillColor=light-dark(#FA6800,#3399FF);strokeColor=none;" vertex="1" parent="1">
          <mxGeometry x="620" y="1730" width="140" height="50" as="geometry" />
        </mxCell>
        <mxCell id="E-5v2TKGbrNrk4kBcRAY-1131" value="" style="endArrow=none;dashed=1;html=1;rounded=0;entryX=0.5;entryY=1;entryDx=0;entryDy=0;" edge="1" parent="1" target="E-5v2TKGbrNrk4kBcRAY-1130">
          <mxGeometry width="50" height="50" relative="1" as="geometry">
            <mxPoint x="690" y="2110" as="sourcePoint" />
            <mxPoint x="710" y="1820" as="targetPoint" />
          </mxGeometry>
        </mxCell>
        <mxCell id="E-5v2TKGbrNrk4kBcRAY-1132" value="&amp;lt;&amp;lt;event&amp;gt;&amp;gt;" style="shape=umlActor;verticalLabelPosition=bottom;verticalAlign=top;html=1;" vertex="1" parent="1">
          <mxGeometry x="445" y="1670" width="30" height="60" as="geometry" />
        </mxCell>
        <mxCell id="E-5v2TKGbrNrk4kBcRAY-1133" value="Loop" style="shape=umlFrame;whiteSpace=wrap;html=1;pointerEvents=0;" vertex="1" parent="1">
          <mxGeometry x="660" y="1850" width="600" height="410" as="geometry" />
        </mxCell>
        <mxCell id="E-5v2TKGbrNrk4kBcRAY-1134" value="Alt" style="shape=umlFrame;whiteSpace=wrap;html=1;pointerEvents=0;" vertex="1" parent="1">
          <mxGeometry x="680" y="1920" width="300" height="200" as="geometry" />
        </mxCell>
        <mxCell id="E-5v2TKGbrNrk4kBcRAY-1135" value="per ogni utente" style="text;align=center;fontStyle=1;verticalAlign=middle;spacingLeft=3;spacingRight=3;strokeColor=none;rotatable=0;points=[[0,0.5],[1,0.5]];portConstraint=eastwest;html=1;" vertex="1" parent="1">
          <mxGeometry x="730" y="1860" width="80" height="26" as="geometry" />
        </mxCell>
        <mxCell id="E-5v2TKGbrNrk4kBcRAY-1136" value="distanza &amp;lt; raggio&lt;br&gt;AND&lt;br&gt;livelloAttualeFiume &amp;gt; livelloRischio" style="text;align=center;fontStyle=1;verticalAlign=middle;spacingLeft=3;spacingRight=3;strokeColor=none;rotatable=0;points=[[0,0.5],[1,0.5]];portConstraint=eastwest;html=1;" vertex="1" parent="1">
          <mxGeometry x="701" y="1960" width="80" height="26" as="geometry" />
        </mxCell>
        <mxCell id="E-5v2TKGbrNrk4kBcRAY-1137" value="notificaUtenti()" style="endArrow=open;endSize=16;endFill=0;html=1;rounded=0;" edge="1" parent="1">
          <mxGeometry width="160" relative="1" as="geometry">
            <mxPoint x="690" y="2060" as="sourcePoint" />
            <mxPoint x="850" y="2060" as="targetPoint" />
            <mxPoint as="offset" />
          </mxGeometry>
        </mxCell>
        <mxCell id="E-5v2TKGbrNrk4kBcRAY-1138" value="" style="ellipse;html=1;shape=endState;fillColor=#000000;strokeColor=light-dark(#000000,#9D9D9D);" vertex="1" parent="1">
          <mxGeometry x="850" y="2045" width="30" height="30" as="geometry" />
        </mxCell>
      </root>
    </mxGraphModel>
  </diagram>
</mxfile>
